[h264 @ 0x557494a838c0] Reinit context to 640x352, pix_fmt: yuv420p
Input #0, mov,mp4,m4a,3gp,3g2,mj2, from '/var/www/html/project/media/video/original/IMG_4910_oTAw9pB.MOV':
  Metadata:
    major_brand     : qt  
    minor_version   : 0
    compatible_brands: qt  
    creation_time   : 2022-06-17T17:55:59.000000Z
  Duration: 00:01:24.41, start: 0.000000, bitrate: 1500 kb/s
    Stream #0:0(und): Audio: aac (LC) (mp4a / 0x6134706D), 44100 Hz, stereo, fltp, 192 kb/s (default)
    Metadata:
      creation_time   : 2022-06-17T17:55:59.000000Z
      handler_name    : Core Media Audio
    Stream #0:1(und): Video: h264 (High), 1 reference frame (avc1 / 0x31637661), yuv420p(tv, bt470bg/bt470bg/smpte170m, progressive, left), 640x352, 1269 kb/s, 30.02 fps, 30 tbr, 15360 tbn, 30720 tbc (default)
    Metadata:
      creation_time   : 2022-06-17T17:55:59.000000Z
      handler_name    : Core Media Video
      encoder         : 'avc1'
[h264 @ 0x557494a9dd40] Reinit context to 1280x720, pix_fmt: yuv420p
Input #1, mov,mp4,m4a,3gp,3g2,mj2, from '/var/www/html/project/static/images/templates/Codino.mp4':
  Metadata:
    major_brand     : mp42
    minor_version   : 1
    compatible_brands: isommp41mp42
    creation_time   : 2021-07-11T07:02:58.000000Z
  Duration: 00:00:02.00, start: 0.000000, bitrate: 1007 kb/s
    Stream #1:0(ita): Audio: aac (LC) (mp4a / 0x6134706D), 44100 Hz, stereo, fltp, 102 kb/s (default)
    Metadata:
      creation_time   : 2021-07-11T07:02:58.000000Z
      handler_name    : Core Media Audio
    Stream #1:1(und): Video: h264 (High), 1 reference frame (avc1 / 0x31637661), yuv420p(tv, bt709, progressive, left), 1280x720 [SAR 1:1 DAR 16:9], 813 kb/s, 25 fps, 25 tbr, 25k tbn, 50k tbc (default)
    Metadata:
      creation_time   : 2021-07-11T07:02:58.000000Z
      handler_name    : Core Media Video
[Parsed_scale_0 @ 0x557494ad0640] w:1280 h:720 flags:'bilinear' interl:0
[Parsed_scale_2 @ 0x557494b2c5c0] w:1280 h:720 flags:'bilinear' interl:0
Stream mapping:
  Stream #0:0 (aac) -> concat:in0:a0
  Stream #0:1 (h264) -> scale
  Stream #1:0 (aac) -> concat:in1:a0
  Stream #1:1 (h264) -> scale
  concat:out:v0 -> Stream #0:0 (libx264)
  concat:out:a0 -> Stream #0:1 (aac)
Press [q] to stop, [?] for help
[h264 @ 0x557494b28a80] Reinit context to 640x352, pix_fmt: yuv420p
[h264 @ 0x557494f0d180] Reinit context to 1280x720, pix_fmt: yuv420p
[Parsed_scale_0 @ 0x5574959d4480] w:1280 h:720 flags:'bilinear' interl:0
[Parsed_scale_2 @ 0x5574959dc7c0] w:1280 h:720 flags:'bilinear' interl:0
[graph 0 input from stream 0:1 @ 0x5574959df740] w:640 h:352 pixfmt:yuv420p tb:1/15360 fr:30/1 sar:0/1 sws_param:flags=2
[graph 0 input from stream 1:1 @ 0x5574959e07c0] w:1280 h:720 pixfmt:yuv420p tb:1/25000 fr:25/1 sar:1/1 sws_param:flags=2
[graph_0_in_0_0 @ 0x5574959e1780] tb:1/44100 samplefmt:fltp samplerate:44100 chlayout:0x3
[graph_0_in_1_0 @ 0x5574959e28c0] tb:1/44100 samplefmt:fltp samplerate:44100 chlayout:0x3
[Parsed_scale_0 @ 0x5574959d4480] w:640 h:352 fmt:yuv420p sar:0/1 -> w:1280 h:720 fmt:yuv420p sar:0/1 flags:0x2
[Parsed_setsar_1 @ 0x5574959dc300] w:1280 h:720 sar:0/1 dar:16/9 -> sar:1/1 dar:16/9
[Parsed_scale_2 @ 0x5574959dc7c0] w:1280 h:720 fmt:yuv420p sar:1/1 -> w:1280 h:720 fmt:yuv420p sar:1/1 flags:0x2
[Parsed_setsar_3 @ 0x5574959dcb00] w:1280 h:720 sar:1/1 dar:16/9 -> sar:1/1 dar:16/9
[libx264 @ 0x557494b4aa40] using SAR=1/1
[libx264 @ 0x557494b4aa40] using cpu capabilities: MMX2 SSE2Fast SSSE3 SSE4.2 AVX FMA3 BMI2 AVX2
[libx264 @ 0x557494b4aa40] profile High, level 3.1
[libx264 @ 0x557494b4aa40] 264 - core 155 r2917 0a84d98 - H.264/MPEG-4 AVC codec - Copyleft 2003-2018 - http://www.videolan.org/x264.html - options: cabac=1 ref=1 deblock=1:0:0 analyse=0x3:0x113 me=hex subme=2 psy=1 psy_rd=1.00:0.00 mixed_ref=0 me_range=16 chroma_me=1 trellis=0 8x8dct=1 cqm=0 deadzone=21,11 fast_pskip=1 chroma_qp_offset=0 threads=22 lookahead_threads=5 sliced_threads=0 nr=0 decimate=1 interlaced=0 bluray_compat=0 constrained_intra=0 bframes=3 b_pyramid=2 b_adapt=1 b_bias=0 direct=1 weightb=1 open_gop=0 weightp=1 keyint=250 keyint_min=25 scenecut=40 intra_refresh=0 rc_lookahead=10 rc=crf mbtree=1 crf=18.0 qcomp=0.60 qpmin=0 qpmax=69 qpstep=4 ip_ratio=1.40 aq=1:1.00
Output #0, mp4, to '/var/www/html/project/media/video/watermarks/IMG_4910_oTAw9pB.mp4':
  Metadata:
    major_brand     : qt  
    minor_version   : 0
    compatible_brands: qt  
    encoder         : Lavf58.29.100
    Stream #0:0: Video: h264 (libx264), 1 reference frame (avc1 / 0x31637661), yuv420p(progressive), 1280x720 [SAR 1:1 DAR 16:9], q=-1--1, 30 fps, 15360 tbn, 30 tbc (default)
    Metadata:
      encoder         : Lavc58.54.100 libx264
    Side data:
      cpb: bitrate max/min/avg: 0/0/0 buffer size: 0 vbv_delay: -1
    Stream #0:1: Audio: aac (LC) (mp4a / 0x6134706D), 44100 Hz, stereo, fltp, delay 1024, 128 kb/s (default)
    Metadata:
      encoder         : Lavc58.54.100 aac
*** dropping frame 2205 from stream 0 at ts 2203
[Parsed_concat_4 @ 0x5574959dd7c0] EOF on in0:a0, 1 streams left in segment.
[Parsed_concat_4 @ 0x5574959dd7c0] EOF on in0:v0, 0 streams left in segment.
[Parsed_concat_4 @ 0x5574959dd7c0] Segment finished at pts=84398802
Past duration 0.835930 too large
Past duration 0.635933 too large
[Parsed_concat_4 @ 0x5574959dd7c0] EOF on in1:a0, 1 streams left in segment.
[Parsed_concat_4 @ 0x5574959dd7c0] EOF on in1:v0, 0 streams left in segment.
[Parsed_concat_4 @ 0x5574959dd7c0] Segment finished at pts=86417487
No more output streams to write to, finishing.
frame= 2583 fps=226 q=-1.0 Lsize=   34849kB time=00:01:26.42 bitrate=3303.3kbits/s dup=0 drop=1 speed=7.56x    
[AVIOContext @ 0x557494a7c180] Statistics: 0 seeks, 23 writeouts
video:33414kB audio:1347kB subtitle:0kB other streams:0kB global headers:0kB muxing overhead: 0.254094%
Input file #0 (/var/www/html/project/media/video/original/IMG_4910_oTAw9pB.MOV):
  Input stream #0:0 (audio): 3634 packets read (2025263 bytes); 3634 frames decoded (3720616 samples); 
  Input stream #0:1 (video): 2606 packets read (13776672 bytes); 2534 frames decoded; 
  Total: 6240 packets (15801935 bytes) demuxed
Input file #1 (/var/www/html/project/static/images/templates/Codino.mp4):
  Input stream #1:0 (audio): 89 packets read (26579 bytes); 87 frames decoded (89024 samples); 
  Input stream #1:1 (video): 50 packets read (203365 bytes); 50 frames decoded; 
  Total: 139 packets (229944 bytes) demuxed
Output file #0 (/var/www/html/project/media/video/watermarks/IMG_4910_oTAw9pB.mp4):
  Output stream #0:0 (video): 2583 frames encoded; 2583 packets muxed (34215941 bytes); 
  Output stream #0:1 (audio): 3722 frames encoded (3811011 samples); 3723 packets muxed (1379114 bytes); 
  Total: 6306 packets (35595055 bytes) muxed
[AVIOContext @ 0x557494b27740] Statistics: 2 seeks, 139 writeouts
[libx264 @ 0x557494b4aa40] frame I:14    Avg QP:13.50  size: 46993
[libx264 @ 0x557494b4aa40] frame P:1127  Avg QP:17.07  size: 20660
[libx264 @ 0x557494b4aa40] frame B:1442  Avg QP:17.65  size:  7124
[libx264 @ 0x557494b4aa40] consecutive B-frames: 22.2%  5.0% 15.2% 57.6%
[libx264 @ 0x557494b4aa40] mb I  I16..4: 29.8% 32.5% 37.7%
[libx264 @ 0x557494b4aa40] mb P  I16..4: 18.2% 21.7%  3.7%  P16..4: 22.6% 13.2%  8.1%  0.0%  0.0%    skip:12.4%
[libx264 @ 0x557494b4aa40] mb B  I16..4:  5.6%  5.2%  0.2%  B16..8: 25.8%  9.9%  0.8%  direct:10.2%  skip:42.5%  L0:48.6% L1:41.3% BI:10.1%
[libx264 @ 0x557494b4aa40] 8x8 transform intra:48.8% inter:41.6%
[libx264 @ 0x557494b4aa40] coded y,uvDC,uvAC intra: 35.8% 29.1% 6.0% inter: 16.8% 15.8% 0.2%
[libx264 @ 0x557494b4aa40] i16 v,h,dc,p: 48% 41%  8%  3%
[libx264 @ 0x557494b4aa40] i8 v,h,dc,ddl,ddr,vr,hd,vl,hu: 14% 58% 16%  1%  2%  2%  3%  1%  2%
[libx264 @ 0x557494b4aa40] i4 v,h,dc,ddl,ddr,vr,hd,vl,hu: 24% 23% 12%  5%  8%  8%  7%  6%  6%
[libx264 @ 0x557494b4aa40] i8c dc,h,v,p: 60% 24% 14%  3%
[libx264 @ 0x557494b4aa40] Weighted P-Frames: Y:2.5% UV:0.0%
[libx264 @ 0x557494b4aa40] kb/s:3168.08
[aac @ 0x557494b49fc0] Qavg: 722.491
[AVIOContext @ 0x557494a85040] Statistics: 167834866 bytes read, 5112 seeks
[AVIOContext @ 0x557494a7f800] Statistics: 1530915 bytes read, 42 seeks
